<?xml version="1.0" encoding="UTF-8"?>
<svg id="Calque_2" xmlns="http://www.w3.org/2000/svg" viewBox="0 0 873.6 1458.2">
  <defs>
    <style>
      .cls-1 {
        fill: #f5a59d;
      }

      .cls-2 {
        fill: #fff;
      }

      .cls-3 {
        fill: #f2f2f2;
      }

      .cls-4 {
        fill: #4d4e7f;
      }

      .cls-5 {
        fill: #333;
      }

      .cls-6 {
        fill: #6768a9;
      }

      .cls-7 {
        fill: #1a1a1a;
      }

      .cls-8 {
        fill: #ccc;
      }

      .cls-9 {
        fill: #45363f;
      }

      .cls-10 {
        fill: #d66958;
      }

      .cls-11 {
        fill: #bf3f4c;
      }

      .cls-12 {
        fill: #e6e6e6;
      }

      .cls-13 {
        fill: #fecbc6;
      }
    </style>
  </defs>
  <g id="Calque_4">
    <g>
      <g>
        <g>
          <path class="cls-13" d="M685.48,1189.72l-8.76-82.89,35.47-10.65s54.82,61.13,62.52,70.07c17.45,20.24,37.2,34.76,37.2,34.76,0,0-117.57,6.87-126.43-11.29Z"/>
          <g>
            <path class="cls-12" d="M677.67,1164.35c21.35,7.33,44.53,9.24,66.81,5.62,4.58-7.25,12.96-12.02,21.55-12.08,10.34-.08,20.47,6.67,24.11,16.42,19.5,8.52,38.99,17.03,58.49,25.54,10.93.27,21.07,8.08,24.01,18.04,3.01,10.19-1.34,21.79-10.07,28.45-8.46,6.45-30.84,5.12-30.84,5.12,0,0-103.35.36-155.03.53,0,0,1.04-64.1.96-87.64Z"/>
            <path class="cls-8" d="M698.51,1208.85c20.55-31.05,56.29-38.91,91.44-34.99-3.79-9.5-13.74-16.04-23.92-15.97-8.6.06-16.97,4.83-21.55,12.08-22.28,3.62-45.46,1.71-66.81-5.62.08,23.54-.96,87.64-.96,87.64,4.61-.02,9.64-.03,14.96-.05-3.39-14.88-2.41-29.93,6.84-43.09Z"/>
            <path class="cls-3" d="M846.4,1207.53c-.54,1.06-3.72.6-8.49-.74-4.78-1.34-11.17-3.52-18.19-6.19-7.02-2.69-13.32-5.46-17.71-7.96-4.4-2.48-6.87-4.65-6.42-5.72.45-1.09,3.66-.91,8.55.12,4.88,1.04,11.49,2.91,18.63,5.64,7.13,2.71,13.39,5.87,17.64,8.65,4.26,2.79,6.53,5.17,6.01,6.19Z"/>
          </g>
        </g>
        <path class="cls-5" d="M381.35,801.64c-9.3,24.16-16.23,58.6,24.01,115.22,29.78,29.78,133.83,124.75,260.65,225.27l62.9-35.95c-70.01-98.06-150.12-195.46-220.13-293.52-10.25-14.35-28.21-39.91-43.41-48.85-15.2-8.94-22.11-14.57-44.53-10.96-14.68,2.37-30.18,24.62-39.49,48.79Z"/>
      </g>
      <g>
        <path class="cls-13" d="M476.57,1383.34l3.12-79.46,47.23-12.4s9.64,65.19,19.25,72.05c21.28,15.2,54.36,38.71,54.36,38.71,0,0-117.24.16-123.96-18.9Z"/>
        <g>
          <path class="cls-12" d="M470.29,1370.43c21.33,7.4,44.5,9.39,66.79,5.85,4.6-7.23,13-11.98,21.59-12.01,10.34-.04,20.44,6.74,24.05,16.5,19.47,8.58,38.93,17.17,58.41,25.74,10.93.31,21.04,8.16,23.95,18.12,2.98,10.2-1.41,21.79-10.17,28.41-8.48,6.42-30.86,5.01-30.86,5.01h-155.03s1.26-64.1,1.26-87.64Z"/>
          <path class="cls-8" d="M490.97,1415.01c20.65-30.98,56.42-38.71,91.56-34.68-3.75-9.52-13.68-16.09-23.86-16.05-8.6.03-16.99,4.78-21.59,12.01-22.29,3.54-45.46,1.55-66.79-5.85,0,23.54-1.26,87.64-1.26,87.64h14.96c-3.34-14.89-2.31-29.94,6.98-43.06Z"/>
          <path class="cls-3" d="M638.87,1414.19c-.54,1.06-3.73.59-8.49-.77-4.77-1.35-11.16-3.55-18.17-6.25-7.01-2.71-13.3-5.5-17.69-8.02-4.39-2.5-6.85-4.67-6.4-5.75.45-1.09,3.66-.9,8.55.14,4.88,1.06,11.48,2.95,18.61,5.71,7.13,2.74,13.37,5.91,17.61,8.71,4.25,2.81,6.51,5.19,5.98,6.22Z"/>
        </g>
      </g>
      <path class="cls-7" d="M432.03,897.29c-19.6,34.38-34.69,77.02-33.06,148.02,21.86,103.13,47.16,188.27,68.84,288.48l76.98,1.59c-3.11-123.16-10.03-242.47-13.14-365.63-.45-18.03,4.5-43.05-3.16-59.26-7.66-16.21-13.87-23.84-31.26-39.31-11.23-10-53.02,4.77-65.2,26.12Z"/>
      <path class="cls-7" d="M497.23,871.17s-30.5-18.72-55.72-18.72h-205.38s-45.01,139.16-6.4,140.45c38.61,1.29,228.72,1.58,228.72,1.58,0,0,64.54-110.98,38.78-123.31Z"/>
      <path class="cls-5" d="M468.15,780.09c-8.07-22.32-31.25-48.7-91.73-6.67-9.21,6.4-20.07,13.18-31.87,20.07-2.47-9.37-5.13-18.69-7.99-27.94H120.52s-16.45,136.19-17.67,163.39c-1.45,32.27,13.07,61.33,55.41,65.26h88.2c23.57,0,171.06-78.25,222.57-120.4,27.54-22.54,21.8-30.99-.87-93.7Z"/>
    </g>
  </g>
  <g id="Calque_2-2" data-name="Calque_2">
    <g id="side">
      <path class="cls-13" d="M270.88,323.08v-49.62h-76.51v49.62c-22.03.61-36.81,4.52-36.81,22.31,0,26.84,85.23,75.74,111.69,75.74s38.44-48.9,38.44-75.74c0-17.79-14.78-21.7-36.81-22.31Z"/>
      <path class="cls-13" d="M439.85,617.56c.38-6.49-44.55-218.46-57.5-252.46-1.6-4.21-3.81-8.83-6.69-12.36-1.94-2.38-23.1-19.56-25.16-17.4-22.38,23.52-28.09,68.65-25.37,100.51,3.05,35.69,32.21,180.36,49.16,199.79,16.94,19.44,64.58,7.58,65.56-18.09Z"/>
      <path class="cls-6" d="M333.81,330.8s16.5-5.1,42.74,12.8c25.3,17.26,57.37,164.8,67.26,202.3,0,0-79.5,26.38-113.7,19.53,0,0-13.64-125.68-15.15-156.61-1.52-30.93,1.36-71.97,18.85-78.03Z"/>
      <g>
        <g>
          <g>
            <path class="cls-13" d="M491.21,884.88s20.08,34.31,21.19,39.63c1.12,5.32,5.39,43.86,10.42,49.13,5.03,5.26,10.51-1.66,9.07-12.94-1.44-11.28-5.44-39.15-7.74-43.52-2.3-4.36-7.19-22.18-9.8-26.91s-23.32-23.9-23.14-5.39Z"/>
            <path class="cls-13" d="M512.56,894.52c-2.2,7.4,9.83,29.38,9.49,31.52-.34,2.14-3.29,29.11-3.31,38.45s8.26,8.25,11.43-2.4c3.17-10.65,5.19-30.33,5.03-33.93-.16-3.6-2.21-32.44-4-39.7-1.79-7.26-15.47-4.59-18.64,6.06Z"/>
            <path class="cls-13" d="M521.37,889.49c-2.2,7.4,8.13,30.52,7.79,32.66-.34,2.14-9.4,24.41-9.42,33.75s8.26,8.25,11.43-2.4c3.17-10.65,13.01-28.57,12.85-32.18-.16-3.6-6.01-29.36-7.8-36.62-1.79-7.26-11.68-5.87-14.85,4.78Z"/>
            <path class="cls-13" d="M488.03,886.68c1.25,3.38,6.83,9.65,13.33,15.68,2.06-1.14,4.17-2.21,6.29-3.23,7.85-3.78,15.95-6.96,23.73-10.93,1.73-.88,3.44-1.81,5.13-2.8-5.16-18.75-27.28-59.22-45.82-43.18,0,0-5.48,36.79-2.65,44.45Z"/>
          </g>
          <path class="cls-13" d="M491.1,841.88s-15.16,5.53-18.1,12.41c-2.1,4.94-.6,33.99-1.41,35.57-.8,1.58,14.6,24.59,17.46,27.4,2.87,2.81,7.68.32,8.03-8.83.35-9.15-8.37-20.29-8.37-20.29,0,0,15.2-17.43,16.04-27.91.84-10.48-13.65-18.35-13.65-18.35Z"/>
        </g>
        <path class="cls-13" d="M485.59,863.02s-85.87-142.8-112.68-201.54c-7.6-16.64-13.06-63.89-4.55-83.54,7.02-16.21,30.77-22.31,42.36-12.91,11.59,9.4,27.87,27.76,33.09,42.18,31.03,85.74,51.86,165.78,72.79,241.08,7.34,26.41-31.02,14.73-31.02,14.73Z"/>
      </g>
      <g>
        <path class="cls-6" d="M248.24,786.95c60.64,0,119.58-24.11,129.8-35.28-6.06-30.04-37.26-60.34-40.02-90.79-3.96-43.62,18.5-87.55,18.93-131.46,15.64-14.27,28.02-31.14,28.14-51.67.09-14.91-6.58-28.88-11.57-42.94-11.53-32.47-14.36-63.85-8.29-97.77-16.27-5.72-91.14-18.34-91.14-18.34,0,0,34.09,81.19-12.53,81.19s-69.92-80.6-69.92-80.6c-36.98,4.1-46.84,5.74-62.47,11.23,6.07,33.91-8.05,367.25-23.58,437.01,10.22,11.18,77.96,19.4,142.65,19.4Z"/>
        <path class="cls-11" d="M363.28,402.98c10,46,26,100-22,129,5.43,0,10.5-1.09,15.65-1.96,0-.2.01-.4.01-.6,15.64-14.27,28.02-31.14,28.14-51.67.09-14.91-6.58-28.88-11.57-42.94-5.41-15.24-8.88-30.23-10.44-45.36-1.55,4.32-1.11,8.92.2,13.52Z"/>
      </g>
      <g>
        <path class="cls-4" d="M165,436.66s-5.6-55.13-34.44-57.23c-.81,103.64-12.43,331.79-24.97,388.12,4.55,4.98,20.54,9.37,42.58,12.71-3.3-5.53-12.25-12.71-13.39-32.05,7.49-122.68,30.22-311.55,30.22-311.55Z"/>
        <path class="cls-4" d="M363.28,402.98c10,46,26,100-22,129,5.43,0,10.5-1.09,15.65-1.96,0-.2.01-.4.01-.6,15.64-14.27,28.02-31.14,28.14-51.67.09-14.91-6.58-28.88-11.57-42.94-5.41-15.24-8.88-30.23-10.44-45.36-1.55,4.32-1.11,8.92.2,13.52Z"/>
      </g>
      <g>
        <path class="cls-13" d="M8.19,611.06c-2.76-42.04,68.77-224.5,85.48-256.82,2.07-4,4.78-8.35,8.04-11.53,2.2-2.15,25.16-16.82,26.96-14.44,19.58,25.89,20.16,71.39,13.86,102.74-7.06,35.12-50.58,192.34-69.61,209.74-19.03,17.4-63.05-4.06-64.74-29.69Z"/>
        <path class="cls-6" d="M145.78,325.65s-15.82-6.93-43.92,7.9c-27.09,14.29-75.61,157.27-89.67,193.41,0,0,76.01,35.19,110.77,32.25,0,0,27.74-123.33,32.74-153.89,5-30.56,6.78-71.66-9.92-79.66Z"/>
      </g>
      <g>
        <g>
          <g>
            <path class="cls-13" d="M43.34,889.44s-9.67,38.56-9.25,43.98,7.11,43.62,3.75,50.08-10.56,1.35-12.33-9.88c-1.77-11.23-5.74-39.11-4.75-43.94.99-4.83.7-23.31,1.88-28.58s15.7-29.48,20.71-11.65Z"/>
            <path class="cls-13" d="M25.54,904.66c4.18,6.49-1.21,30.96-.29,32.92.93,1.96,11.31,27.02,13.94,35.99s-5.62,10.23-11.65.89c-6.02-9.34-13.47-27.67-14.32-31.17-.85-3.5-6.96-31.76-7.27-39.23-.31-7.47,13.57-8.74,19.59.6Z"/>
            <path class="cls-13" d="M15.67,902.3c4.18,6.49.74,31.58,1.67,33.54s15.86,20.8,18.49,29.77-5.62,10.23-11.65.89c-6.02-9.34-20.49-23.79-21.34-27.29-.85-3.5-2.45-29.87-2.76-37.34s9.57-8.91,15.59.43Z"/>
            <path class="cls-13" d="M46.9,890.27c-.25,3.59-3.85,11.18-8.41,18.78-2.3-.52-4.62-.95-6.94-1.34-8.6-1.43-17.26-2.21-25.84-3.85-1.91-.36-3.81-.78-5.71-1.25-.3-19.45,9.62-64.49,31.9-54.28,0,0,15.56,33.79,14.99,41.94Z"/>
          </g>
          <path class="cls-13" d="M31.41,848.13s16.1,1.06,20.85,6.85c3.4,4.15,10.09,32.46,11.31,33.75,1.22,1.3-7.13,27.69-9.09,31.19s-7.29,2.45-10.18-6.23c-2.9-8.69,2.36-21.82,2.36-21.82,0,0-19.47-12.48-23.21-22.31s7.97-21.44,7.97-21.44Z"/>
        </g>
        <path class="cls-13" d="M42.62,866.87s35.48-159.08,44.78-222.98c2.63-18.1,3.97-68.67-9.7-85.15-11.28-13.6-35.79-12.81-44.28-.54-8.49,12.27-26.41,45.38-27.39,60.69-5.79,91,1.71,164.37,2.69,242.52.34,27.4,33.9,5.46,33.9,5.46Z"/>
      </g>
      <path class="cls-4" d="M324.39,528.07c-6.99,8.39-36.36,11.35-49.51,11.44-13.11.02-42.6-2.77-49.6-11.08.36-1.44,6.05-1.26,14.97-.68,11.66.79,22.33,1.35,34.59,1.34,12.26-.09,22.92-.72,34.57-1.59,8.91-.64,14.61-.87,14.98.57Z"/>
    </g>
  </g>
  <g id="Calque_3">
    <g>
      <g>
        <g>
          <path class="cls-13" d="M307.29,220.94c9.12-3,18.35-6.06,26.45-11.23,8.1-5.17,15.08-12.66,17.78-21.88,2.7-9.22.37-20.2-7.11-26.23-7.48-6.02-18.77-4.19-25.56,2.6-3.27,3.27-17.19,58.59-11.56,56.74Z"/>
          <path class="cls-13" d="M158.97,220.94c-9.12-3-18.35-6.06-26.45-11.23-8.1-5.17-15.08-12.66-17.78-21.88-2.7-9.22-.37-20.2,7.11-26.23,7.48-6.02,18.77-4.19,25.56,2.6,3.27,3.27,17.19,58.59,11.56,56.74Z"/>
        </g>
        <g>
          <path class="cls-13" d="M242.19,23.03c-1.58-.08-16.54-.08-18.12,0-48.27,2.33-93.83,10.46-86.77,86.11,0,0,7.56,86.84,11.77,103.65,2.14,8.53,7.77,16.6,12.72,23.69,7.54,10.81,16.27,20.92,26.15,29.64,12.12,10.7,26.59,19.93,43.05,19.93,15.27,0,26.76-4.41,38.18-12.61,11.36-8.17,21.2-18.48,29.78-29.49,6.54-8.39,13.07-17.57,17.01-27.53.47-1.18.91-2.38,1.22-3.62,4.21-16.81,11.77-103.65,11.77-103.65,7.06-75.64-38.49-83.78-86.77-86.11Z"/>
          <path class="cls-1" d="M233.13,282.24c-35.26-1.47-64.21-34.62-74.49-66.94-3.67-11.02-6.62-32.54-4.46-43.37,3.48-17.43,35.72-46.05,54.51-64.84,24.44-24.44,38.22-34.58,38.22-34.58,0,0,39.53,58.85,82.04,36.74,0-.07.01-.12.01-.12,7.06-75.64-38.49-83.78-86.77-86.11-1.57-.08-16.54-.08-18.12,0-48.27,2.33-93.83,10.46-86.77,86.11,0,0,7.56,86.84,11.77,103.65,2.14,8.53,7.77,16.6,12.72,23.69,7.54,10.81,16.27,20.92,26.15,29.64,12.12,10.7,26.59,19.93,43.05,19.93,15.27,0,26.76-4.41,38.18-12.61,5.03-3.61,9.75-7.65,14.21-11.97-22.93,17.46-45.12,21.52-50.26,20.78Z"/>
        </g>
      </g>
      <g>
        <path class="cls-10" d="M236.46,152.05s10.11,32.07,8.25,37.7c-3.19,9.66-18.94,6.52-18.94,6.52,0,0,10.69-3.78,10.69-10.73v-33.5Z"/>
        <path class="cls-9" d="M173.13,129.16c.16-.17.33-.32.5-.47,9.27-8.37,19.87-11.27,30.62-8.19.93.26,1.91.62,2.73,1.92,1.54,2.49,1.77,5.3,1.7,9.37-12.51-6-25.15-5.44-36.78,1.7-.4-1.36-.27-1.46.13-2.57.29-.8.68-1.33,1.1-1.77Z"/>
        <path class="cls-9" d="M296.19,129.16c-.16-.17-.33-.32-.5-.47-9.27-8.37-19.87-11.27-30.62-8.19-.93.26-1.91.62-2.73,1.92-1.54,2.49-1.77,5.3-1.7,9.37,12.51-6,25.15-5.44,36.78,1.7.4-1.36.27-1.46-.13-2.57-.29-.8-.68-1.33-1.1-1.77Z"/>
        <g>
          <path class="cls-9" d="M202.55,151.67c0-5.69-4.1-10.3-9.17-10.3s-9.17,4.61-9.17,10.3v10.85c0,5.67,4.51,7.63,9.17,7.63s9.17-1.96,9.17-7.63v-10.85Z"/>
          <path class="cls-2" d="M199.24,151.23c0,.46-.37.83-.83.83s-.83-.37-.83-.83.37-.83.83-.83.83.37.83.83Z"/>
        </g>
        <g>
          <path class="cls-9" d="M286.43,151.67c0-5.69-4.1-10.3-9.17-10.3s-9.17,4.61-9.17,10.3v10.85c0,5.67,4.51,7.63,9.17,7.63s9.17-1.96,9.17-7.63v-10.85Z"/>
          <path class="cls-2" d="M283.12,151.23c0,.46-.37.83-.83.83s-.83-.37-.83-.83.37-.83.83-.83.83.37.83.83Z"/>
        </g>
        <path class="cls-2" d="M198.7,196.77s23.01,4.04,36.91,3.4c13.91-.64,38.46-3.4,38.46-3.4,2.46,0-11.15,36.23-37.33,36.51-26.07.29-39.68-36.51-38.04-36.51Z"/>
      </g>
      <path class="cls-9" d="M115.28,159.79s20.13,9.02,35.08.66c9.12-5.1,16.49-12.64,22.49-21.2,10.62-15.16,72.09-72.13,72.09-72.13,0,0,67.89,79.52,73.62,87.4,5.73,7.88,17.05,9.49,26.48,3.44,0,0,13.78-121.1-50.42-128.34,0,0-9.9-14.29-39.35-24.04C216.61-7.24,132.12-2.69,118.81,70.65c-10,55.09-3.53,89.14-3.53,89.14Z"/>
      <path class="cls-9" d="M199.73,400.88c-2.2-2.93-4.58-5.7-7.16-8.28,6.97-7.77,10.6-18.59,9.19-28.96-1.65-12.14-10.12-23.04-21.28-27.99,4.46-6.97,6.29-15.67,4.6-23.79-1.87-9.01-8-16.95-16.01-21.41,4.96-7.06,8.22-15.3,9.07-23.9,2.01-20.23-9.41-41.14-27.51-50.39l-15.48-4.86c-22.31,7-40.16,33.63-36.78,56.77,1.96,13.43,10.09,25.48,21.15,33.28-7.4,4.94-12.05,14-12,23.02.06,11.07,6.52,21.58,15.66,27.85,4.75,3.26,10.15,5.44,15.78,6.66-2.49,3.88-3.55,8.84-2.63,13.38,1.76,8.63,9.08,15.3,17.26,18.54,5.22,2.07,10.77,2.96,16.4,3.33-3.2,3.82-5.58,8.38-7.15,13.12-2.71,8.18-3.2,16.92-3.2,25.53.01,17.16,1.94,34.33,5.73,51.07,13.95-1.07,27.9-2.13,41.85-3.2-9.3-24.86-14.51-51.23-15.44-77.75,9.47,16.16,13.64,35.16,16.29,53.56.73,5.07,1.34,10.15,1.92,15.24,1.82-1.61,3.62-3.23,5.41-4.86-1.09-9.19-2.35-18.41-4.23-27.48.46,1.54.9,3.08,1.32,4.62,1.62,5.96,3.04,11.97,4.45,17.98.25,1.05.88,1.66,1.64,1.95,1.36-1.27,2.71-2.56,4.05-3.86-4.84-20.58-10.02-41.93-22.91-59.16Z"/>
    </g>
  </g>
</svg>