<?xml version="1.0" encoding="UTF-8"?>
<svg id="Calque_2" xmlns="http://www.w3.org/2000/svg" viewBox="0 0 809.12 2780.06">
  <defs>
    <style>
      .cls-1 {
        fill: #f5a59d;
      }

      .cls-2 {
        fill: #e8e9eb;
      }

      .cls-3 {
        fill: #fff;
      }

      .cls-4 {
        fill: #4d4e7f;
      }

      .cls-5 {
        fill: #333;
      }

      .cls-6 {
        fill: #6768a9;
      }

      .cls-7 {
        fill: #45363f;
      }

      .cls-8 {
        fill: #d66958;
      }

      .cls-9 {
        fill: #dbdcde;
      }

      .cls-10 {
        fill: #fecbc6;
      }
    </style>
  </defs>
  <g id="Calque_5">
    <g id="front">
      <g>
        <g>
          <path class="cls-10" d="M317.41,2623.67v-125.54h-94.35s30.73,73.17,2.16,101.74c-28.56,28.56-38.52,44.56-38.52,44.56,0,0,120.32,8.67,130.7-20.76Z"/>
          <g>
            <path class="cls-2" d="M108.2,2699.92c1.54-1.48,3.1-2.93,4.64-4.36,25.14-23.25,50.29-46.49,75.43-69.74,8.01-12.13,16.02-24.25,24.02-36.36,1.71-1.45,5.66-4.8,5.66-4.8,12.29-10.42,29.64-14.56,45.31-10.83,13.73,3.27,25.88,12.51,32.9,24.73,10.54,0,21.08,0,31.62,0v92.62l-70.98,55.32c-50.22,32.93-68.62,36.01-109.84,32.36-14.35-1.27-28.96-4.91-40.38-13.7-11.42-8.79-19.01-23.54-16.26-37.69,2.13-10.94,9.72-19.69,17.87-27.55Z"/>
            <path class="cls-9" d="M327.8,2598.56c-10.54,0-21.08,0-31.62,0-7.02-12.22-19.17-21.46-32.9-24.73-15.67-3.73-33.02.41-45.31,10.83,0,0-3.95,3.34-5.66,4.8-7.32,11.08-14.65,22.18-21.98,33.28,32.09-14.1,75.63-16.57,92.98,10.91,15.85,25.36,15.72,54.05,12.2,82.71l32.3-25.18v-92.62Z"/>
          </g>
        </g>
        <g>
          <path class="cls-10" d="M470.29,2623.67v-125.54h94.35s-30.73,73.17-2.16,101.74c28.56,28.56,38.52,44.56,38.52,44.56,0,0-120.32,8.67-130.7-20.76Z"/>
          <g>
            <path class="cls-2" d="M679.5,2699.92c-1.54-1.48-3.1-2.93-4.64-4.36-25.14-23.25-50.29-46.49-75.43-69.74-8.01-12.13-16.02-24.25-24.02-36.36-1.71-1.45-5.66-4.8-5.66-4.8-12.29-10.42-29.64-14.56-45.31-10.83-13.73,3.27-25.88,12.51-32.9,24.73-10.54,0-21.08,0-31.62,0v92.62l70.98,55.32c50.22,32.93,68.62,36.01,109.84,32.36,14.35-1.27,28.96-4.91,40.38-13.7,11.42-8.79,19.01-23.54,16.26-37.69-2.13-10.94-9.72-19.69-17.87-27.55Z"/>
            <path class="cls-9" d="M459.9,2598.56c10.54,0,21.08,0,31.62,0,7.02-12.22,19.17-21.46,32.9-24.73,15.67-3.73,33.02.41,45.31,10.83,0,0,3.95,3.34,5.66,4.8,7.32,11.08,14.65,22.18,21.98,33.28-32.09-14.1-75.63-16.57-92.98,10.91-15.85,25.36-15.72,54.05-12.2,82.71l-32.3-25.18v-92.62Z"/>
          </g>
        </g>
        <path class="cls-5" d="M209.12,1135.53c-13.02,55.98-36.79,108.2-56.95,161.64-20.16,53.44-35.76,185.77-2.65,269.93,28.46,133.04,46.29,265.49,46.29,381.59,0,47.77,76.28,64.77,101.72,53.47,89.79-39.87,54.24-190.46,54.24-274.76,0-129.46,45.27-222.27,61.37-316.19-.73-88.82-1.16-140.83-1.89-229.65l-202.14-46.05Z"/>
        <path class="cls-5" d="M576.67,1145.79c13.02,55.98,36.79,108.2,56.95,161.64,20.16,53.44,35.76,185.77,2.65,269.93-28.46,133.04-46.29,265.49-46.29,381.59,0,47.77-76.28,64.77-101.72,53.47-89.79-39.87-54.24-190.46-54.24-274.76,0-129.46-45.27-222.27-61.37-316.19.73-88.82,1.16-140.83,1.89-229.65l202.14-46.05Z"/>
        <path class="cls-5" d="M593.5,1864.79c20.43,116.4,33.87,148.99,37.76,256.21-4.48,130.58-29.6,256.81-72.71,420.84h-91.65c-6.31-185.99-12.61-371.4-18.92-557.39-.92-27.22-10.74-64.43-.5-89.67,10.23-25.24,19.04-37.39,44.19-62.54,16.25-16.25,95.43-3.97,101.84,32.56Z"/>
        <path class="cls-5" d="M192.28,1854.53c-20.43,116.4-33.87,148.99-37.76,256.21,4.48,130.58,29.6,267.07,72.71,431.1h91.65c6.31-185.99,12.61-381.66,18.92-567.65.92-27.22,10.74-64.43.5-89.67-10.23-25.24-19.04-37.39-44.19-62.54-16.25-16.25-95.43-3.97-101.84,32.56Z"/>
      </g>
      <path class="cls-10" d="M60.26,1020.7c-1.17-10.84,56.66-369.6,75.57-427.61,2.34-7.18,5.66-15.11,10.18-21.25,3.06-4.15,37.09-34.66,40.72-31.21,39.42,37.55,52.7,112.69,50.76,166.28-2.17,60.04-39.14,304.76-65.92,338.71-26.78,33.95-107.56,18-111.31-24.92Z"/>
      <path class="cls-6" d="M214.3,531.65s-28.06-7.18-70.55,24.96c-40.96,30.98-82.55,280.77-96.03,344.39,0,0,135.33,37.65,192.06,23.37,0,0,12.51-211.64,12.51-263.57s-8.19-120.45-38-129.15Z"/>
      <path class="cls-10" d="M451.98,519.14v-83.21h-128.31v83.21c-36.95,1.03-61.73,7.58-61.73,37.42,0,45.01,79.53,112.84,123.9,112.84s127.88-67.83,127.88-112.84c0-29.84-24.78-36.39-61.73-37.42Z"/>
      <g>
        <g>
          <g>
            <path class="cls-10" d="M75.87,1489.42s-22.36,62.8-22.53,71.92c-.18,9.11,4.83,73.96-1.81,84.2-6.65,10.24-17.84.55-18.99-18.49-1.15-19.03-3.27-66.22-.85-74.12,2.43-7.9,4.92-38.79,7.74-47.41,2.82-8.61,30.96-46.67,36.44-16.11Z"/>
            <path class="cls-10" d="M43.7,1511.96c5.94,11.5-7.01,51.48-5.78,54.9,1.23,3.42,14.52,46.93,17.46,62.33,2.94,15.39-11.04,16.17-19.58-.39-8.55-16.56-18.03-48.36-18.89-54.34-.85-5.98-6.5-54.13-5.81-66.66.68-12.52,24.06-12.4,32.61,4.16Z"/>
            <path class="cls-10" d="M27.62,1506.43c5.94,11.5-3.86,52.83-2.62,56.26s23.12,37.28,26.06,52.67c2.94,15.39-11.04,16.17-19.58-.39-8.55-16.56-30.37-43.02-31.23-49s.73-50.25,1.42-62.78,17.41-13.32,25.95,3.24Z"/>
            <path class="cls-10" d="M81.67,1491.38c-1,5.95-8.23,18.04-17.07,30-3.76-1.23-7.55-2.33-11.36-3.35-14.12-3.77-28.46-6.48-42.51-10.59-3.12-.91-6.24-1.91-9.33-3.01,2.64-32.51,26.45-106.11,62.01-85.47,0,0,20.53,58.91,18.26,72.42Z"/>
          </g>
          <path class="cls-10" d="M62.62,1418.53s26.71,4.37,33.7,14.8c5.01,7.47,11.61,55.81,13.43,58.17,1.82,2.36-16.37,45.08-20.21,50.61-3.84,5.53-12.56,2.92-16-12.05s7.46-36.05,7.46-36.05c0,0-30.49-23.98-35.15-40.98-4.65-17,16.76-34.5,16.76-34.5Z"/>
        </g>
        <path class="cls-10" d="M78.31,1451.63s84.87-259.84,110.69-365.01c7.32-29.8,17.7-113.99-2.47-143.71-16.64-24.51-73.19-27.15-89.34-8.03-16.15,19.12-45.37,62.02-49.46,87.41-24.34,150.97-14.16,284.15-25.13,414.76-3.85,45.8,55.71,14.58,55.71,14.58Z"/>
      </g>
      <path class="cls-10" d="M739.33,1026.84c1.17-10.84-56.66-369.6-75.57-427.61-2.34-7.18-5.66-15.11-10.18-21.25-3.06-4.15-37.09-34.66-40.72-31.21-39.42,37.55-52.7,112.69-50.76,166.28,2.17,60.04,39.14,304.76,65.92,338.71,26.78,33.95,107.56,18,111.31-24.92Z"/>
      <path class="cls-6" d="M585.28,537.79s28.06-7.18,70.55,24.96c40.96,30.98,82.55,280.77,96.03,344.39,0,0-135.33,37.65-192.06,23.37,0,0-12.51-211.64-12.51-263.57s8.19-120.45,38-129.15Z"/>
      <g>
        <g>
          <g>
            <path class="cls-10" d="M733.25,1510.74s22.36,62.81,22.54,71.92c.18,9.11-4.83,73.96,1.81,84.2,6.65,10.24,17.84.55,18.99-18.49,1.15-19.03,3.27-66.22.85-74.12-2.43-7.9-4.92-38.79-7.74-47.41-2.82-8.61-30.96-46.67-36.44-16.11Z"/>
            <path class="cls-10" d="M765.42,1533.29c-5.94,11.5,7.01,51.48,5.78,54.9-1.23,3.42-14.52,46.93-17.46,62.33-2.94,15.39,11.04,16.17,19.58-.39,8.55-16.56,18.03-48.36,18.89-54.34.85-5.98,6.5-54.13,5.81-66.66-.68-12.52-24.06-12.4-32.61,4.16Z"/>
            <path class="cls-10" d="M781.5,1527.75c-5.94,11.5,3.86,52.83,2.62,56.26-1.23,3.42-23.12,37.28-26.06,52.67-2.94,15.39,11.04,16.17,19.58-.39,8.55-16.56,30.37-43.02,31.23-49,.85-5.98-.73-50.25-1.42-62.78s-17.41-13.32-25.95,3.24Z"/>
            <path class="cls-10" d="M727.44,1512.71c1,5.95,8.23,18.04,17.07,30,3.76-1.23,7.55-2.33,11.36-3.35,14.12-3.77,28.46-6.48,42.51-10.59,3.12-.91,6.24-1.91,9.33-3.01-2.64-32.51-26.45-106.11-62.01-85.47,0,0-20.53,58.91-18.26,72.42Z"/>
          </g>
          <path class="cls-10" d="M746.5,1439.85s-26.71,4.37-33.7,14.8c-5.01,7.48-11.61,55.81-13.43,58.17-1.82,2.36,16.37,45.08,20.21,50.61,3.84,5.53,12.56,2.92,16-12.05,3.44-14.97-7.46-36.05-7.46-36.05,0,0,30.49-23.98,35.15-40.98,4.65-17-16.76-34.5-16.76-34.5Z"/>
        </g>
        <path class="cls-10" d="M730.81,1472.95s-64.19-259.84-90.01-365.01c-7.32-29.8-38.38-113.99-18.21-143.71,16.64-24.51,64.96-34.43,81.11-15.31,16.15,19.12,49.87,76.49,53.96,101.89,24.34,150.97,17.89,276.95,28.86,407.56,3.85,45.8-55.71,14.58-55.71,14.58Z"/>
      </g>
      <g>
        <path class="cls-6" d="M395.49,1285.99c101.7,0,219.05-29.33,236.19-48.07-10.16-50.38-62.48-101.19-67.11-152.26-6.64-73.16,31.03-146.83,31.74-220.46,26.24-23.92,46.98-52.23,47.19-86.65.15-25.01-11.03-48.44-19.4-72.01-19.33-54.46-24.09-107.09-13.91-163.96-27.28-9.59-152.84-30.76-152.84-30.76,0,0,14.54,146.38-63.64,146.38s-74.63-145.39-74.63-145.39c-62.02,6.88-115.8,20.57-142.01,29.78,10.18,56.87,5.42,109.5-13.91,163.96-8.37,23.56-19.54,47-19.4,72.01.2,34.42,20.95,62.72,47.19,86.65.7,72.73,38.51,145.5,32.04,217.78-4.65,51.97-57.08,103.68-67.42,154.94,17.14,18.74,131.43,48.07,239.92,48.07Z"/>
        <path class="cls-4" d="M160.83,738.67c5.61-22.45,14.74-43.72,12.66-66.77-2.79,11.5-6.21,23.03-10.33,34.64-8.37,23.56-19.54,47-19.4,72.01.2,34.42,20.95,62.72,47.19,86.65,0,.1,0,.19,0,.29,10.1,6.57,20.01,13.74,31.92,17.41-40.25-36.9-75.47-87.21-62.05-144.23Z"/>
        <path class="cls-4" d="M606.93,653.14c16.77,77.15,43.6,167.71-36.9,216.34,9.11,0,17.62-1.83,26.25-3.28,0-.33.02-.67.02-1,26.24-23.92,46.98-52.23,47.19-86.65.15-25.01-11.03-48.44-19.4-72.01-9.07-25.55-14.89-50.7-17.5-76.07-2.6,7.24-1.86,14.95.34,22.67Z"/>
        <path class="cls-4" d="M547.17,840.96c1.36,1.42-10.46,8.19-14.74,10.33-13.49,6.5-28.92,12.24-44.1,16.21-3.79.98-7.67,2.21-11.77,2.98-4.09.85-8.3,1.73-12.62,2.62-34.24,6.73-79.98,7.01-114.3.7-4.33-.84-8.55-1.67-12.65-2.47-4.11-.72-8.01-1.9-11.81-2.84-15.23-3.79-30.73-9.34-44.29-15.67-20.53-10.44-19.71-13.77,2.79-7.84,8,1.64,14.95,3.63,23.96,5.38,6.69,1.46,13.57,2.85,20.59,3.97,3.72.59,7.51,1.45,11.5,1.88,3.97.54,8.05,1.09,12.23,1.66,33.1,4.26,76.4,3.99,109.44-.67,4.18-.62,8.25-1.22,12.21-1.81,3.99-.48,7.77-1.38,11.48-2.02,7.01-1.21,13.88-2.68,20.54-4.22,8.99-1.86,15.92-3.94,23.9-5.68,4.56-1.35,17.54-4.42,17.63-2.52Z"/>
      </g>
      <g>
        <g>
          <g>
            <path class="cls-10" d="M522.38,370.53c15.3-5.04,30.78-10.16,44.36-18.83,13.58-8.67,25.3-21.24,29.82-36.7,4.53-15.46.62-33.89-11.93-43.99s-31.48-7.03-42.87,4.36c-5.48,5.48-28.82,98.26-19.38,95.15Z"/>
            <path class="cls-10" d="M273.63,370.53c-15.3-5.04-30.78-10.16-44.36-18.83-13.58-8.67-25.3-21.24-29.82-36.7-4.53-15.46-.62-33.89,11.93-43.99,12.55-10.1,31.48-7.03,42.87,4.36,5.48,5.48,28.82,98.26,19.38,95.15Z"/>
          </g>
          <g>
            <path class="cls-10" d="M413.2,38.62c-2.64-.13-27.75-.13-30.39,0-80.96,3.91-157.35,17.55-145.52,144.41,0,0,12.68,145.64,19.74,173.83,3.59,14.3,13.04,27.83,21.34,39.73,12.64,18.12,27.28,35.08,43.86,49.71,20.33,17.94,44.59,33.42,72.2,33.42,25.61,0,44.89-7.39,64.03-21.15,19.06-13.7,35.55-30.99,49.94-49.46,10.96-14.08,21.92-29.47,28.53-46.18.79-1.99,1.52-4,2.04-6.07,7.07-28.19,19.74-173.83,19.74-173.83,11.83-126.86-64.56-140.5-145.52-144.41Z"/>
            <path class="cls-1" d="M398.01,473.35c-59.13-2.46-107.68-58.05-124.93-112.26-6.16-18.48-11.11-54.57-7.48-72.73,5.83-29.23,59.91-77.23,91.42-108.74,40.99-40.99,64.09-57.99,64.09-57.99,0,0,66.29,98.7,137.59,61.61.01-.12.02-.2.02-.2,11.83-126.86-64.56-140.5-145.52-144.41-2.64-.13-27.75-.13-30.39,0-80.96,3.91-157.35,17.55-145.52,144.41,0,0,12.68,145.64,19.74,173.83,3.59,14.3,13.04,27.83,21.34,39.73,12.64,18.12,27.28,35.08,43.86,49.71,20.33,17.94,44.59,33.42,72.2,33.42,25.61,0,44.89-7.39,64.03-21.15,8.43-6.06,16.36-12.83,23.82-20.08-38.46,29.28-75.66,36.09-84.28,34.85Z"/>
          </g>
        </g>
        <g>
          <path class="cls-8" d="M403.59,255.01s16.95,53.79,13.84,63.23c-5.35,16.21-31.77,10.94-31.77,10.94,0,0,17.93-6.34,17.93-17.99v-56.18Z"/>
          <path class="cls-7" d="M297.38,216.62c.28-.28.56-.54.84-.79,15.55-14.03,33.33-18.89,51.35-13.73,1.56.44,3.21,1.04,4.57,3.22,2.58,4.17,2.98,8.89,2.86,15.72-20.97-10.07-42.17-9.12-61.68,2.85-.67-2.28-.46-2.44.21-4.31.48-1.35,1.15-2.24,1.85-2.96Z"/>
          <path class="cls-7" d="M503.77,216.62c-.28-.28-.56-.54-.84-.79-15.55-14.03-33.33-18.89-51.35-13.73-1.56.44-3.21,1.04-4.57,3.22-2.58,4.17-2.98,8.89-2.86,15.72,20.97-10.07,42.17-9.12,61.68,2.85.67-2.28.46-2.44-.21-4.31-.48-1.35-1.15-2.24-1.85-2.96Z"/>
          <g>
            <path class="cls-7" d="M346.73,254.36c0-9.54-6.88-17.28-15.37-17.28s-15.37,7.73-15.37,17.28v18.2c0,9.5,7.56,12.79,15.37,12.79s15.37-3.29,15.37-12.79v-18.2Z"/>
            <path class="cls-3" d="M341.18,253.62c0,.77-.62,1.39-1.39,1.39s-1.39-.62-1.39-1.39.62-1.39,1.39-1.39,1.39.62,1.39,1.39Z"/>
          </g>
          <g>
            <path class="cls-7" d="M487.4,254.36c0-9.54-6.88-17.28-15.37-17.28s-15.37,7.73-15.37,17.28v18.2c0,9.5,7.56,12.79,15.37,12.79s15.37-3.29,15.37-12.79v-18.2Z"/>
            <path class="cls-3" d="M481.85,253.62c0,.77-.62,1.39-1.39,1.39s-1.39-.62-1.39-1.39.62-1.39,1.39-1.39,1.39.62,1.39,1.39Z"/>
          </g>
          <path class="cls-3" d="M340.26,329.99s38.58,6.78,61.9,5.7c23.32-1.08,64.51-5.7,64.51-5.7,4.12,0-18.7,60.76-62.61,61.23-43.72.49-66.55-61.23-63.8-61.23Z"/>
        </g>
        <path class="cls-7" d="M200.36,267.98s33.76,15.14,58.84,1.1c15.29-8.56,27.66-21.2,37.72-35.56,17.82-25.43,120.9-120.97,120.9-120.97,0,0,113.86,133.36,123.47,146.57s28.6,15.92,44.41,5.78c0,0,23.12-203.09-84.56-215.24,0,0-16.61-23.96-65.99-40.32-64.83-21.48-206.53-13.86-228.86,109.15-16.77,92.4-5.92,149.49-5.92,149.49Z"/>
        <path class="cls-7" d="M341.99,672.31c-3.68-4.92-7.68-9.56-12.01-13.89,11.68-13.03,17.77-31.18,15.4-48.57-2.77-20.36-16.97-38.64-35.68-46.94,7.48-11.69,10.55-26.27,7.72-39.9-3.14-15.12-13.42-28.43-26.85-35.9,8.32-11.84,13.78-25.67,15.21-40.09,3.36-33.93-15.78-68.99-46.13-84.51l-25.97-8.15c-37.42,11.74-67.34,56.4-61.68,95.21,3.29,22.52,16.92,42.72,35.47,55.81-12.41,8.29-20.21,23.48-20.13,38.61.1,18.57,10.94,36.2,26.25,46.7,7.97,5.47,17.02,9.12,26.47,11.17-4.17,6.51-5.96,14.82-4.4,22.45,2.95,14.47,15.22,25.66,28.95,31.1,8.75,3.47,18.07,4.96,27.5,5.58-5.36,6.4-9.36,14.05-11.99,22-4.54,13.72-5.37,28.37-5.36,42.82.02,28.79,3.25,57.57,9.61,85.65,23.4-1.79,46.79-3.58,70.19-5.37-15.59-41.69-24.34-85.91-25.89-130.39,15.89,27.1,22.87,58.96,27.32,89.82,1.23,8.5,2.25,17.03,3.22,25.56,3.05-2.7,6.07-5.41,9.08-8.15-1.82-15.41-3.95-30.88-7.09-46.09.77,2.58,1.51,5.17,2.22,7.75,2.72,9.99,5.1,20.08,7.47,30.16.41,1.76,1.48,2.79,2.75,3.26,2.28-2.13,4.55-4.29,6.78-6.48-8.12-34.51-16.8-70.33-38.42-99.21Z"/>
      </g>
    </g>
  </g>
</svg>