<?xml version="1.0" encoding="UTF-8"?>
<svg xmlns="http://www.w3.org/2000/svg" xmlns:xlink="http://www.w3.org/1999/xlink" viewBox="0 0 82.15 305.2">
  <defs>
    <style>
      .cls-1 {
        fill: #fcc5a7;
      }

      .cls-2 {
        stroke: #efc99a;
        stroke-width: 2px;
      }

      .cls-2, .cls-3, .cls-4, .cls-5 {
        fill: none;
      }

      .cls-2, .cls-5 {
        stroke-miterlimit: 10;
      }

      .cls-6 {
        fill: #fcd2a4;
      }

      .cls-7 {
        fill: #3f0f1b;
      }

      .cls-8 {
        fill: url(#linear-gradient-2);
      }

      .cls-9 {
        fill: #7a3d14;
      }

      .cls-10 {
        fill: #fff;
      }

      .cls-11 {
        fill: url(#linear-gradient-4);
      }

      .cls-12 {
        fill: #bac2ce;
      }

      .cls-13 {
        fill: #183145;
      }

      .cls-14 {
        fill: #fc9e81;
      }

      .cls-15 {
        fill: #efc99a;
      }

      .cls-16 {
        fill: url(#linear-gradient-3);
      }

      .cls-17 {
        fill: #f5c4b3;
      }

      .cls-18 {
        fill: url(#linear-gradient-5);
      }

      .cls-19 {
        fill: #832621;
      }

      .cls-20 {
        isolation: isolate;
      }

      .cls-21 {
        fill: #d14a4a;
      }

      .cls-22 {
        opacity: .3;
      }

      .cls-22, .cls-23 {
        fill: #ffb495;
      }

      .cls-22, .cls-24, .cls-25 {
        mix-blend-mode: multiply;
      }

      .cls-26 {
        fill: url(#linear-gradient-8);
      }

      .cls-4 {
        stroke: #bac2ce;
        stroke-linecap: round;
        stroke-linejoin: round;
        stroke-width: 1.39px;
      }

      .cls-27 {
        fill: url(#linear-gradient-7);
      }

      .cls-5 {
        stroke: #183145;
        stroke-width: 3px;
      }

      .cls-28 {
        fill: url(#linear-gradient-9);
      }

      .cls-29 {
        fill: #097189;
      }

      .cls-30 {
        fill: url(#linear-gradient-6);
      }

      .cls-31 {
        fill: #10171c;
      }

      .cls-32 {
        fill: #dcf5f9;
      }

      .cls-33 {
        fill: url(#linear-gradient);
      }

      .cls-34 {
        clip-path: url(#clippath);
      }

      .cls-35 {
        fill: #561326;
      }

      .cls-36 {
        fill: #5b2b0a;
      }

      .cls-25 {
        opacity: .5;
      }
    </style>
    <linearGradient id="linear-gradient" x1="57.31" y1="37.57" x2="63.22" y2="37.57" gradientUnits="userSpaceOnUse">
      <stop offset="0" stop-color="#ffaa8b"/>
      <stop offset="1" stop-color="#ffaa8b" stop-opacity="0"/>
    </linearGradient>
    <linearGradient id="linear-gradient-2" x1="19.47" y1="37.39" x2="25.37" y2="37.39" gradientUnits="userSpaceOnUse">
      <stop offset="0" stop-color="#ffaa8b" stop-opacity="0"/>
      <stop offset="1" stop-color="#ffaa8b"/>
    </linearGradient>
    <clipPath id="clippath">
      <path class="cls-3" d="M48.79,45.77c-.26-.28-3.43-.44-7.52-.44s-7.26.16-7.52.44c-.29.18,1.51,6.64,7.52,6.64s7.81-6.46,7.52-6.64Z"/>
    </clipPath>
    <linearGradient id="linear-gradient-3" x1="41.02" y1="41.68" x2="41.02" y2="28.93" gradientUnits="userSpaceOnUse">
      <stop offset="0" stop-color="#ffaa8b" stop-opacity=".7"/>
      <stop offset=".1" stop-color="#ffaa8b" stop-opacity=".58"/>
      <stop offset=".29" stop-color="#ffaa8b" stop-opacity=".38"/>
      <stop offset=".47" stop-color="#ffaa8b" stop-opacity=".21"/>
      <stop offset=".63" stop-color="#ffaa8b" stop-opacity=".1"/>
      <stop offset=".77" stop-color="#ffaa8b" stop-opacity=".03"/>
      <stop offset=".87" stop-color="#ffaa8b" stop-opacity="0"/>
    </linearGradient>
    <linearGradient id="linear-gradient-4" x1="770.21" y1="34.71" x2="765.82" y2="34.71" gradientTransform="translate(-735.88)" gradientUnits="userSpaceOnUse">
      <stop offset="0" stop-color="#248157"/>
      <stop offset="1" stop-color="#24816a" stop-opacity="0"/>
    </linearGradient>
    <linearGradient id="linear-gradient-5" x1="769.23" y1="34.71" x2="766.8" y2="34.71" xlink:href="#linear-gradient-4"/>
    <linearGradient id="linear-gradient-6" x1="28.04" y1="36.34" x2="35.05" y2="36.34" xlink:href="#linear-gradient-3"/>
    <linearGradient id="linear-gradient-7" x1="116.62" y1="34.71" x2="112.22" y2="34.71" gradientTransform="translate(164.84) rotate(-180) scale(1 -1)" xlink:href="#linear-gradient-4"/>
    <linearGradient id="linear-gradient-8" x1="115.63" y1="34.71" x2="113.2" y2="34.71" gradientTransform="translate(164.84) rotate(-180) scale(1 -1)" xlink:href="#linear-gradient-4"/>
    <linearGradient id="linear-gradient-9" x1="54.51" y1="36.34" x2="47.5" y2="36.34" xlink:href="#linear-gradient-3"/>
  </defs>
  <g class="cls-20">
    <g id="Calque_2">
      <g id="Calque_4">
        <g>
          <g>
            <path class="cls-1" d="M20.13,278.56s1.05,10.66.48,12.2c-.2.53-6.11,3.56-6.11,3.56l-.04,6.12,11.57-2.17,3.65-1.56.23-1.63s-.78-3.22-.64-4.6c.14-1.38.9-11.93.9-11.93"/>
            <path class="cls-12" d="M29.45,294.21c.98.16.59,1.92,1,4.73.17,1.17.11,3.78-.14,4.94-1.9,1.7-6.95.68-7.75.65-4.84-.17-10.26,1.22-16.09.44-1.14-.15-3.36-.28-3.89-2.43-.07-.27,0-1.74,0-1.74,0,0,11.18-4.9,14.59-6.79.69-.38,1.29-1.32,1.8-1.32s1.02,1.39,1.44,1.69c2.11,1.48,5.45,1.38,7.47.94.88-.19,1.26-1.15,1.56-1.1Z"/>
            <path class="cls-31" d="M29.45,292.84c.98.16.59,1.92,1,4.73.17,1.17.33,3.79.07,4.94-1.9,1.7-7.16.67-7.97.65-4.84-.17-10.4.92-16.09.44-1.19-.1-3.36-.65-3.89-2.8-.45-1.83,10.58-5.93,14.59-8.15.69-.38,1.29-1.32,1.8-1.32s1.02,1.39,1.44,1.69c2.11,1.48,5.45,1.38,7.47.94.88-.2,1.26-1.15,1.56-1.1Z"/>
            <g>
              <path class="cls-4" d="M11.57,295.07c.54.21,1,.59,1.37,1.04.37.45.66.95.95,1.45"/>
              <path class="cls-4" d="M14.09,293.74c.99.06,2.41,1.74,2.52,3.06"/>
              <path class="cls-4" d="M16.36,292.76c.67.23,1.23.72,1.62,1.31.39.59.62,1.28.74,1.97"/>
            </g>
            <path class="cls-4" d="M18.98,291.32s1.02,1.39,1.44,1.69c2.11,1.48,5.45,1.38,7.47.94.88-.2,1.26-1.15,1.56-1.1"/>
          </g>
          <g>
            <path class="cls-1" d="M62.49,278.56s-1.05,10.66-.48,12.2c.2.53,6.11,3.56,6.11,3.56l.04,6.12-11.57-2.17-3.65-1.56-.23-1.63s.78-3.22.64-4.6c-.14-1.38-.9-11.93-.9-11.93"/>
            <path class="cls-12" d="M53.17,294.21c-.98.16-.59,1.92-1,4.73-.17,1.17-.11,3.78.14,4.94,1.9,1.7,6.95.68,7.75.65,4.84-.17,10.26,1.22,16.09.44,1.14-.15,3.36-.28,3.89-2.43.07-.27,0-1.74,0-1.74,0,0-11.18-4.9-14.59-6.79-.69-.38-1.29-1.32-1.8-1.32s-1.02,1.39-1.44,1.69c-2.11,1.48-5.45,1.38-7.47.94-.88-.19-1.26-1.15-1.56-1.1Z"/>
            <path class="cls-31" d="M53.17,292.84c-.98.16-.59,1.92-1,4.73-.17,1.17-.33,3.79-.07,4.94,1.9,1.7,7.16.67,7.97.65,4.84-.17,10.4.92,16.09.44,1.19-.1,3.36-.65,3.89-2.8.45-1.83-10.58-5.93-14.59-8.15-.69-.38-1.29-1.32-1.8-1.32s-1.02,1.39-1.44,1.69c-2.11,1.48-5.45,1.38-7.47.94-.88-.2-1.26-1.15-1.56-1.1Z"/>
            <g>
              <path class="cls-4" d="M71.05,295.07c-.54.21-1,.59-1.37,1.04-.37.45-.66.95-.95,1.45"/>
              <path class="cls-4" d="M68.53,293.74c-.99.06-2.41,1.74-2.52,3.06"/>
              <path class="cls-4" d="M66.26,292.76c-.67.23-1.23.72-1.62,1.31-.39.59-.62,1.28-.74,1.97"/>
            </g>
            <path class="cls-4" d="M63.65,291.32s-1.02,1.39-1.44,1.69c-2.11,1.48-5.45,1.38-7.47.94-.88-.2-1.26-1.15-1.56-1.1"/>
          </g>
          <path class="cls-5" d="M17.52,131.2s-5.97,7.88-7.51,11.12"/>
          <path class="cls-15" d="M67.3,164.99c0-10.45-2.67-24.86-2.67-24.86,0,0-43.08-11.93-46.04-.8-2.62,9.88-2.64,18.34-3,25.75-.11,2.42,3.83,123.32,3.83,123.32h10.14s1.97-15.95,4.03-36.51c0-.13.02-.27.04-.42.04-.35.07-.7.1-1.07.03-.33.07-.66.09-.99.89-10.26,1.11-23.42,1.11-23.42,2.02-12.93,5.52-41.59,6.62-53.5,0,0,4.04,40.57,6.05,53.5,0,0,.22,13.15,1.11,23.42.03.33.07.66.09.99.04.37.07.72.1,1.07.02.15.03.29.04.42,2.06,20.56,3.71,36.51,3.71,36.51h9.39s5.25-111.9,5.24-123.4Z"/>
          <rect class="cls-6" x="18.67" y="285.51" width="11.88" height="3.28" rx=".91" ry=".91"/>
          <rect class="cls-6" x="51.26" y="285.51" width="11.88" height="3.28" rx=".91" ry=".91"/>
          <g class="cls-24">
            <path class="cls-15" d="M27.34,140.33c-.98,5.48-5.46,10.42-10.98,11.53,4.91-2.45,8.65-6.58,10.98-11.53h0Z"/>
          </g>
          <g class="cls-24">
            <path class="cls-15" d="M55.39,140.08c2.32,4.94,6.06,9.08,10.98,11.53-5.52-1.11-10-6.05-10.98-11.53h0Z"/>
          </g>
          <g class="cls-24">
            <path class="cls-15" d="M38.46,155.6c.62,3.53.48,7.18,1.21,10.67.58,2.08,1.31,4.11,1.88,6.21-1.13-1.88-2.09-3.85-2.79-5.94-.9-3.57-.64-7.32-.3-10.94h0Z"/>
          </g>
          <path class="cls-9" d="M17.74,142.88s15.55,2.24,47.36,0c0,0,.52-1.49-.47-2.75-.99-1.26-41.33-1.18-41.49-1.18s-4.83-.33-4.83-.33c0,0-1.28,3.11-.56,4.26Z"/>
          <path class="cls-2" d="M24.21,138.95s-.66,3.19-.31,5.38"/>
          <path class="cls-2" d="M55.63,138.95s.66,3.19.31,5.38"/>
          <rect class="cls-36" x="36.24" y="139.26" width="9.88" height="5.44" rx="1.2" ry="1.2"/>
          <g>
            <path class="cls-29" d="M43.45,74.34h-4.49s-3.69,35.6-2.4,46.16c.45,3.69,3.34,13.61,4.64,13.61,1.39,0,4.19-9.93,4.64-13.61,1.29-10.56-2.4-46.16-2.4-46.16Z"/>
            <path class="cls-29" d="M41.2,67.31l-4,2.62s.54,3.74,1.49,4.42c1.02.73,4.07.82,5.02,0,.88-.76,1.49-4.42,1.49-4.42l-4-2.62Z"/>
          </g>
          <path class="cls-23" d="M50.37,61.25c-.22-.63-.69-2.71-.55-8.77h-17.24c.14,6.05-.33,8.13-.55,8.77-.2.07-8.18,2.87-8.18,2.87l17.36,6.89,17.36-6.89s-7.98-2.8-8.18-2.87Z"/>
          <g>
            <path class="cls-14" d="M75.61,170.31s1.06,2.43,1.06,3.21-.2,3.13-.53,3.76c-.33.63-2.33,2.97-2.52,3.4-.2.43-.34,1.43,0,1.53.5.15,3.56-2.82,3.56-2.82l2.35-5.01s-.31-3.09-.39-3.29c-.08-.2-1.64-2.66-1.64-2.66"/>
            <path class="cls-17" d="M80.33,166.54c.75,3.32,1.51,7.84,1.28,9.2s-2.41,5.88-2.41,5.88c0,0-4,3.32-4.52,3.39-.53.08-.68-1.24,0-2.07.68-.83,2.56-2.64,2.75-3.13.19-.49.53-4.03.51-4.67-.02-.64-1.53-3.05-2.47-2.98-.94.07-1.47,1.77-1.47,2.45s-.23,2.26-.57,2.79c-.34.53-1.21.75-1.55.34-.34-.41-.6-4.18-.6-4.94s1.94-5.48,2.13-6.53c.19-1.06-1.1-9.87-1.1-9.87l7.53-.79s-.26,7.62.49,10.93Z"/>
            <path class="cls-17" d="M67.63,73.66s4.6-5.18,6.13,1.98c1.42,6.66,5.19,30.39,7.43,44.17.32,1.98.47,3.98.44,5.99-.09,6.87-.48,23.93-2.12,38.03-3.52.48-6.26,0-6.26,0,0,0-3.41-28.75-3.41-39.86,0,0-8.17-26.96-8.17-41.04,0-7.04,5.96-9.25,5.96-9.25Z"/>
          </g>
          <path class="cls-1" d="M29.6,105.82s4.03-1.9,5.16-3.13,3.5-5.05,4.42-6.43c.92-1.39,1.59-2.37,2.7-2.99,1.11-.62,3.72-1.82,4.66-2.44.94-.63,1.67-1.2,1.89-1.15.23.06.76.8.24,1.53-.52.73-1.64,1.66-2.5,2.29-.86.63-1.46,1.19-1.27,1.21.18.03,2.83-1.74,3.33-2,.51-.25,2.01-1.41,2.4-1.95.39-.54.86-3.39,1.38-3.54s.76.39.92,1.07c.16.67.12,1.62.09,2.05-.03.48-.13.88-.13.88,0,0,.6.61.84,1.1.24.49-.07,1.56-.07,1.56,0,0,.45.14.74.71s-.22,1.87-.69,2.4c0,0,.34,1.06-.02,1.61-.36.55-2.37,2.4-2.92,2.96s-5.48,2.5-8.13,3.67c-2.65,1.17-9.59,6.27-9.59,6.27l-3.45-5.68Z"/>
          <path class="cls-32" d="M53.71,62.42v.21c.01-.13,0-.21,0-.21Z"/>
          <path class="cls-22" d="M32.6,54.34s3.54,4.05,8.42,4.05,9.06-3.51,9.06-3.51l-9.3-.54h-8.18Z"/>
          <g>
            <g>
              <path class="cls-17" d="M62.85,38.93c-.51,1.58-4.18,5.22-5.54,2.68l.88-8.38h.02c.84-.43,1.93-.72,2.86-.46.14.04.28.09.41.16,2.04,1.03,1.96,4.16,1.36,6Z"/>
              <path class="cls-33" d="M62.85,38.93c-.51,1.58-4.18,5.22-5.54,2.68l.88-8.38h.02c.84-.43,1.93-.72,2.86-.46.14.04.28.09.41.16,2.04,1.03,1.96,4.16,1.36,6Z"/>
            </g>
            <path class="cls-17" d="M23.87,26.97s1.39,14.1,1.82,17.2c.43,3.1,3.63,12.6,16.24,12.28,9.08-.43,14.85-3.1,15.81-16.02s.96-16.56.96-16.56l-2.88-8.76-2.88-4.06-10.47-1.07-9.08.11-5.98.64-1.17,3.74-2.35,12.5Z"/>
            <g>
              <path class="cls-7" d="M61.07,32.77c-.93-.26-2.02.03-2.86.45l-.03-5.83c0-1.25-.33-2.48-.95-3.57l-3.52-6.25c.97-.85,1.8-1.86,2.43-2.97.92-1.62,1.51-3.42,1.65-5.24,2.25,2.05,4.19,4.87,5.39,6.48.34,1.19-1.17,13.55-2.1,16.93Z"/>
              <path class="cls-7" d="M57.78,9.35c-.14,1.83-.73,3.62-1.65,5.24-.63,1.11-1.45,2.13-2.43,2.97h0l-.16-.29h0s-.18-.03-.45-.06c-.64-.09-1.96-.28-3.82-.54-.27-.04-.54-.07-.83-.11-2.75-.37-6.48-.87-10.9-1.43-.54.61-1.07,1.14-1.57,1.61h0c-.18.17-.36.33-.54.49-4.33,3.78-7.15,2.86-9.9,2.56-.25,2.44-.95,12.2-1.03,13.32v-.08c-.98-.49-2.28-.81-3.3-.3-.1.05-.2.11-.29.17-.29-2.01-1.87-12.98-1.73-13.67.16-.77,1.17-3.93,3.56-6.95-1.4.64-1.73.3-1.73.3,0,0,.71-.35,3.08-3.19,2.37-2.85,5.89-5.26,10.62-5.99,1.22-.19,2.86-.11,4.68.13,5.2.69,11.88,2.69,14.65,3.49,1.25.36,2.48,1.2,3.64,2.24.04.03.07.06.1.09Z"/>
              <path class="cls-7" d="M24.5,33.12c0,.07,0,.11,0,.11-1.54-1.18-3.54,0-3.54,0,0,0-.02-.11-.05-.31.09-.06.19-.12.29-.17,1.02-.51,2.32-.19,3.29.3v.08Z"/>
              <path class="cls-7" d="M35.81,8.64s-3.75,5.03,1.55,9.54c1.34,1.14,3.4,1.59,5.09,1.82,2.32.32,4.75.19,7-.47,6.2-1.81,9.63-8.94,7.84-15.04-.26-.89-.69-1.72-1.16-2.51-.32,1.36-.48,2.23-1.51,3.32.33-.96.46-3.95-.34-5.3-1.28,1.82-4.49,4.14-8.81,4.27.87-.57,1.13-2.33,1.09-3.37-.38.91-5.76,2.4-7.16,2.63l-3.58,5.1Z"/>
              <path class="cls-35" d="M57.78,9.35c-.14,1.83-.73,3.62-1.65,5.24-.63,1.11-1.45,2.13-2.43,2.97h0c-.45.38-.92.73-1.43,1.04-1.61.98-3.45,1.54-5.3,1.68-.93.09-1.85.06-2.77,0-.46-.05-.91-.12-1.37-.17-.45-.08-.9-.17-1.34-.27.46.02.91.05,1.36.09.46,0,.91.02,1.36.02.9-.01,1.81-.04,2.69-.19,1.77-.26,3.5-.8,5.01-1.74.41-.24.8-.52,1.17-.81,1.01-.81,1.88-1.8,2.6-2.89.5-.74.91-1.55,1.25-2.38.21-.47.38-.95.53-1.44.12-.37.22-.76.31-1.15Z"/>
              <path class="cls-35" d="M52.46,11.73c-.44,1.26-1.11,2.44-1.93,3.52-.81,1.08-1.8,2.04-2.92,2.82-1.11.79-2.42,1.31-3.76,1.56-1.34.31-2.72.11-4.01-.16.34,0,.67,0,1,0,.33.01.66.02.98-.04l.97-.1.95-.22c1.24-.34,2.44-.84,3.49-1.6,1.06-.73,2.02-1.62,2.89-2.59.85-.99,1.65-2.04,2.33-3.19Z"/>
              <path class="cls-35" d="M32.63,11.2c-.02,1.24.08,2.41.54,3.45.21.52.53,1,.92,1.42.38.44.86.78,1.35,1.18-.6-.13-1.21-.37-1.71-.79-.27-.18-.47-.44-.69-.69-.18-.27-.37-.55-.49-.85-.25-.6-.38-1.25-.36-1.89.02-.64.15-1.27.44-1.83Z"/>
              <path class="cls-35" d="M35.35,9.61c-.5,1.21-.78,2.44-.64,3.65.06.6.19,1.2.43,1.77.09.3.26.57.38.86.14.29.32.56.46.86-.25-.21-.51-.43-.73-.67-.2-.27-.44-.51-.58-.82-.36-.58-.54-1.26-.63-1.94-.07-.69.02-1.39.25-2.03.22-.64.58-1.23,1.07-1.69Z"/>
            </g>
            <g>
              <path class="cls-17" d="M24.49,33.04c-.97-.49-2.27-.81-3.29-.3-2.05,1.03-1.96,4.16-1.37,6,.51,1.58,4.18,5.22,5.54,2.67"/>
              <path class="cls-8" d="M25.37,41.42c-1.36,2.54-5.03-1.09-5.54-2.67-.56-1.76-.67-4.67,1.07-5.83.09-.06.19-.12.29-.17,1.02-.51,2.32-.19,3.29.3v.08s.88,8.3.88,8.3Z"/>
            </g>
            <g>
              <path class="cls-7" d="M36.4,28.2s.11-2.24-1.01-2.35c-1.12-.11-8.06-1.39-8.22,4.27,1.44-1.34,3.63-2.72,9.24-1.92Z"/>
              <path class="cls-7" d="M46.15,28.2s-.11-2.24,1.01-2.35,8.06-1.39,8.22,4.27c-1.44-1.34-3.63-2.72-9.24-1.92Z"/>
            </g>
            <g>
              <g>
                <path class="cls-19" d="M48.79,45.77c-.26-.28-3.43-.44-7.52-.44s-7.26.16-7.52.44c-.29.18,1.51,6.64,7.52,6.64s7.81-6.46,7.52-6.64Z"/>
                <g class="cls-34">
                  <g>
                    <path class="cls-21" d="M47.8,50.17c-1.64,2.56-4.07,5-6.73,4.89-2.89-.11-5.02-2.43-6.31-4.64,2.26-1.98,8.23-4.22,13.04-.25Z"/>
                    <path class="cls-10" d="M46.94,44.11c-.04,1.8-.45,1.8-.45,1.8-1.68.84-8.11,1.61-10.53,0-.26-.17-.3-1.02-.35-1.6.13-.11.28-.17.38-.17,4.01-.24,9.13-.62,10.95-.04Z"/>
                  </g>
                </g>
              </g>
              <path class="cls-16" d="M41.81,29.32h-1.85c.31,6.02-2.24,9.44-1.59,10.76.65,1.33,1.93,1.59,2.65,1.59s2-.27,2.65-1.59c.65-1.33-1.86-3.08-1.86-10.76Z"/>
            </g>
            <g>
              <g>
                <path class="cls-10" d="M35.54,34.87c-1.1-2.45-4.86-4.56-7.13-.73-.18.3-.17.68.01.98.65,1.02,2.54,3.06,6.62,1.07.49-.24.72-.82.5-1.31Z"/>
                <g>
                  <path class="cls-11" d="M34.29,34.28c.29,1.55-1.04,2.88-2.59,2.59-.86-.16-1.56-.86-1.73-1.73-.29-1.55,1.04-2.88,2.59-2.59.86.16,1.56.86,1.73,1.73Z"/>
                  <path class="cls-18" d="M33.33,34.52c.13.82-.57,1.52-1.39,1.39-.51-.08-.93-.5-1.01-1.01-.13-.82.57-1.52,1.39-1.39.51.08.93.5,1.01,1.01Z"/>
                  <path class="cls-10" d="M32.92,34.73c0,.22.18.4.4.4s.4-.18.4-.4-.18-.4-.4-.4-.4.18-.4.4Z"/>
                  <path class="cls-10" d="M30.94,33.73c-.14.6.39,1.13.99.99.28-.07.52-.3.59-.58.15-.6-.39-1.13-.99-.99-.28.07-.52.3-.58.59Z"/>
                </g>
                <path class="cls-30" d="M28.35,34.99c.63,1.15,1.7,1.85,2.87,2.01,1.19.17,2.42-.12,3.68-.44-.53.37-1.11.72-1.76.89-.64.2-1.33.28-2.02.18-.69-.1-1.36-.4-1.86-.88-.52-.46-.84-1.11-.92-1.76Z"/>
                <path class="cls-7" d="M35.47,35.8c.33-.91-.61-1.66-1.12-2.27-1.71-1.79-4.92-1.5-6,.8-.06.21-.06.44,0,.66-.25-.43-.08-.95.14-1.36,1.08-2.45,4.71-2.45,6.2-.43.48.72,1.28,1.73.77,2.59h0Z"/>
              </g>
              <g>
                <path class="cls-10" d="M47.02,34.87c1.1-2.45,4.86-4.56,7.13-.73.18.3.17.68-.01.98-.65,1.02-2.54,3.06-6.62,1.07-.49-.24-.72-.82-.5-1.31Z"/>
                <g>
                  <path class="cls-27" d="M48.27,34.28c-.29,1.55,1.04,2.88,2.59,2.59.86-.16,1.56-.86,1.73-1.73.29-1.55-1.04-2.88-2.59-2.59-.86.16-1.56.86-1.73,1.73Z"/>
                  <path class="cls-26" d="M49.22,34.52c-.13.82.57,1.52,1.39,1.39.51-.08.93-.5,1.01-1.01.13-.82-.57-1.52-1.39-1.39-.51.08-.93.5-1.01,1.01Z"/>
                  <path class="cls-10" d="M49.64,34.73c0,.22-.18.4-.4.4s-.4-.18-.4-.4.18-.4.4-.4.4.18.4.4Z"/>
                  <path class="cls-10" d="M51.61,33.73c.14.6-.39,1.13-.99.99-.28-.07-.52-.3-.59-.58-.15-.6.39-1.13.99-.99.28.07.52.3.58.59Z"/>
                </g>
                <path class="cls-28" d="M54.2,34.99c-.08.65-.4,1.3-.92,1.76-.5.48-1.17.78-1.86.88-.69.1-1.38.02-2.02-.18-.65-.18-1.23-.52-1.76-.89,1.27.32,2.5.61,3.68.44,1.17-.17,2.24-.86,2.87-2.01Z"/>
                <path class="cls-7" d="M47.09,35.8c-.51-.86.29-1.87.77-2.59,1.49-2.02,5.12-2.03,6.2.43.22.4.4.92.14,1.36.07-.22.07-.46,0-.66-1.08-2.3-4.29-2.59-6-.8-.52.61-1.46,1.36-1.12,2.27h0Z"/>
              </g>
            </g>
          </g>
          <path class="cls-13" d="M14.63,179.83h-4.88c-2.03,0-3.67-1.64-3.67-3.67v-35.28h12.05l.17,35.28c0,2.02-1.64,3.67-3.67,3.67Z"/>
          <g>
            <path class="cls-14" d="M6.04,170.31s-1.06,2.43-1.06,3.21.2,3.13.53,3.76c.33.63,2.33,2.97,2.52,3.4.2.43.34,1.43,0,1.53-.5.15-3.56-2.82-3.56-2.82l-2.35-5.01s.31-3.09.39-3.29c.08-.2,1.64-2.66,1.64-2.66"/>
            <path class="cls-17" d="M1.32,166.54c-.75,3.32-1.51,7.84-1.28,9.2s2.41,5.88,2.41,5.88c0,0,4,3.32,4.52,3.39.53.08.68-1.24,0-2.07-.68-.83-2.56-2.64-2.75-3.13-.19-.49-.53-4.03-.51-4.67.02-.64,1.53-3.05,2.47-2.98.94.07,1.47,1.77,1.47,2.45s.23,2.26.57,2.79c.34.53,1.21.75,1.55.34.34-.41.6-4.18.6-4.94s-1.94-5.48-2.13-6.53c-.19-1.06,1.1-9.87,1.1-9.87l-7.53-.79s.26,7.62-.49,10.93Z"/>
            <path class="cls-17" d="M14.03,73.66s-4.6-5.18-6.13,1.98c-1.42,6.66-5.2,30.39-7.43,44.17-.32,1.98-.47,3.98-.44,5.99.09,6.87.48,23.93,2.12,38.03,3.52.48,6.26,0,6.26,0,0,0,3.41-28.75,3.41-39.86,0,0,8.17-26.96,8.17-41.04,0-7.04-5.96-9.25-5.96-9.25Z"/>
          </g>
          <g>
            <path class="cls-31" d="M81.39,106.89c-6.01,2.39-9.61,4.14-14.61,3.82-.02,3.96.03,15.54,1.54,20.48,1.83,6,2.45,10.03-4.94,9.26-7.39-.76-40.22-.04-42.4,0-.8.01-1.53-.06-2.18-.23-1.12-.28-2.03-.81-2.71-1.55-1.6-1.71-1.98-4.51-.96-7.84,1.5-4.94,1.56-16.52,1.53-20.48-4.72.31-8.2-1.24-13.63-3.42-.33-.14-.68-.27-1.03-.41-.51-.2-.8-.75-.69-1.28,3.15-15.89,3.45-28.38,9.15-34.91,1.11-1.27,3.04-2.4,5.1-3.34s4.25-1.68,5.86-2.18l8.51-2.83s-.24,4.59,11.8,4.67h.31c4.32,0,7.04-.52,8.76-1.19,2.8-1.36,2.71-3.12,2.71-3.12l3.5,1.16,2.87.96,2.15.71c3.21.98,8.74,2.97,10.96,5.52,5.68,6.52,5.99,18.99,9.13,34.85.12.57-.2,1.14-.73,1.35Z"/>
            <path class="cls-31" d="M29.75,62.42v.21c-.01-.13,0-.21,0-.21Z"/>
          </g>
          <path class="cls-13" d="M59.88,64.46c-1.15,5.91-9.8,44.89-41.08,75.76-1.8,1.78-3.67,3.53-5.62,5.24l-1.98-2.26c1.69-1.48,3.32-2.99,4.89-4.53,32.1-31.25,40.22-71.36,40.92-75.17l2.87.96Z"/>
          <path class="cls-13" d="M31,91.46h-8.97c-.59,0-1.06-.48-1.06-1.07h0c0-.59.48-1.07,1.06-1.07h8.97c.59,0,1.06.48,1.06,1.07h0c0,.59-.48,1.07-1.06,1.07Z"/>
          <path class="cls-25" d="M16.95,96.08l-.29,14.27c-4.72.31-8.2-1.24-13.63-3.42,3.35.95,9.83,2.01,10.81,1.52,1.24-.62,3.11-12.37,3.11-12.37Z"/>
          <path class="cls-25" d="M66.53,96.45l.29,14.27c4.72.31,8.2-1.24,13.63-3.42-3.35.95-9.83,2.01-10.81,1.52-1.24-.62-3.11-12.37-3.11-12.37Z"/>
        </g>
      </g>
    </g>
  </g>
</svg>