<?xml version="1.0" encoding="UTF-8"?>
<svg id="Calque_2" xmlns="http://www.w3.org/2000/svg" xmlns:xlink="http://www.w3.org/1999/xlink" viewBox="0 0 194.85 194.84">
  <defs>
    <style>
      .cls-1 {
        fill: #fff;
      }

      .cls-2 {
        fill: #2ebdf0;
      }

      .cls-3 {
        fill: url(#Degradado_sin_nombre_8-4);
      }

      .cls-4 {
        fill: url(#Degradado_sin_nombre_8-3);
      }

      .cls-5 {
        fill: #9cdbf4;
      }

      .cls-6 {
        fill: #16abe0;
      }

      .cls-7 {
        fill: url(#Degradado_sin_nombre_8-5);
      }

      .cls-8 {
        fill: url(#Degradado_sin_nombre_8-2);
      }

      .cls-9 {
        fill: url(#Degradado_sin_nombre_8);
      }

      .cls-10 {
        fill: url(#Degradado_sin_nombre_30);
      }
    </style>
    <linearGradient id="Degradado_sin_nombre_30" data-name="Degradado sin nombre 30" x1="48.7" y1="181.8" x2="146.14" y2="13.04" gradientUnits="userSpaceOnUse">
      <stop offset="0" stop-color="#468ef0"/>
      <stop offset="1" stop-color="#59c4f0"/>
    </linearGradient>
    <linearGradient id="Degradado_sin_nombre_8" data-name="Degradado sin nombre 8" x1="108.29" y1="114.88" x2="190.69" y2="114.88" gradientUnits="userSpaceOnUse">
      <stop offset="0" stop-color="#6fd8f0"/>
      <stop offset="1" stop-color="#8cf0e6"/>
    </linearGradient>
    <linearGradient id="Degradado_sin_nombre_8-2" data-name="Degradado sin nombre 8" x1="15.26" y1="120.38" x2="97.6" y2="120.38" xlink:href="#Degradado_sin_nombre_8"/>
    <linearGradient id="Degradado_sin_nombre_8-3" data-name="Degradado sin nombre 8" x1="32.52" y1="128.31" x2="108.38" y2="128.31" xlink:href="#Degradado_sin_nombre_8"/>
    <linearGradient id="Degradado_sin_nombre_8-4" data-name="Degradado sin nombre 8" x1="94.85" y1="129.03" x2="149.23" y2="129.03" xlink:href="#Degradado_sin_nombre_8"/>
    <linearGradient id="Degradado_sin_nombre_8-5" data-name="Degradado sin nombre 8" x1="96.17" y1="67.39" x2="98.98" y2="67.39" xlink:href="#Degradado_sin_nombre_8"/>
  </defs>
  <g id="OBJECTS">
    <g>
      <path class="cls-10" d="M194.85,97.42c0,9.83-1.46,19.31-4.16,28.25-6.75,22.32-21.29,41.25-40.46,53.63-15.21,9.83-33.35,15.54-52.81,15.54-12.01,0-23.51-2.18-34.13-6.15-11.43-4.27-21.84-10.63-30.76-18.62-6.64-5.92-12.45-12.74-17.27-20.28C5.6,134.67,0,116.7,0,97.42,0,43.62,43.62,0,97.42,0s97.43,43.62,97.43,97.42Z"/>
      <path class="cls-5" d="M158.35,63.48c1.74,1.57,3.43,3.18,5.1,4.82-1.63-1.68-3.33-3.29-5.1-4.82Z"/>
      <path class="cls-9" d="M190.69,125.67c-6.75,22.32-21.29,41.25-40.46,53.63,11.14-68.26-18.67-100.29-37.86-113.47-1.43-.98-2.79-1.85-4.08-2.62,9.82-3.98,19.5-8.24,29.18-12.74,4.6,1.98,9.03,4.36,13.2,7.14,2.68,1.8,5.24,3.77,7.69,5.87,1.73,1.57,3.43,3.18,5.1,4.83,3.61,3.54,7.04,7.26,10.21,11.31,10.51,13.45,17.01,29.2,17.02,46.05Z"/>
      <path class="cls-8" d="M32.52,170.07c-6.64-5.92-12.45-12.74-17.27-20.28,18.16-4.59,35.51-12.33,50.93-22.95,6-4.13,11.78-8.76,16.16-14.59,4.38-5.82,7.28-13,6.93-20.28-.25-5.18-2.33-10.36-5.86-14.09-1.43-1.51-3.09-2.79-4.96-3.73.85-.28,1.7-.56,2.56-.85.85-.28,1.69-.57,2.55-.86.07-.02.13-.05.2-.07,1.63-.55,3.25-1.12,4.87-1.68.72,1.04,1.42,2.13,2.1,3.27,3.29,5.48,6.07,12.07,6.7,19.31,2.83,32.1-28.65,57.93-64.9,76.81Z"/>
      <path class="cls-6" d="M88.62,70.68c-1.62.57-3.24,1.14-4.87,1.68,1.62-.56,3.24-1.13,4.86-1.7,0,0,0,0,0,.02Z"/>
      <path class="cls-4" d="M63.29,188.69c-11.43-4.27-21.84-10.63-30.76-18.62,36.24-18.88,67.73-44.72,64.9-76.81-.63-7.24-3.41-13.83-6.7-19.31-.68-1.14-1.38-2.22-2.1-3.27,2.54-.9,5.05-1.82,7.56-2.75.48.52.99,1.11,1.51,1.76,4.03,4.91,9.2,13.36,10.38,25.32,3.25,32.94-20.06,67.22-44.79,93.68Z"/>
      <path class="cls-2" d="M96.18,67.93c-2.51.94-5.03,1.86-7.56,2.75,0,0,0,0,0-.02,2.54-.89,5.05-1.81,7.56-2.75h0Z"/>
      <path class="cls-3" d="M150.23,179.3c-15.21,9.83-33.35,15.54-52.81,15.54-12.01,0-23.51-2.18-34.13-6.15,24.73-26.47,48.04-60.74,44.79-93.68-1.18-11.96-6.35-20.41-10.38-25.32-.52-.65-1.03-1.24-1.51-1.76.94-.35,1.87-.7,2.8-1.07,1.48-.55,2.95-1.13,4.42-1.7,1.33-.52,2.63-1.03,3.95-1.56.31-.13.62-.26.94-.38,1.29.78,2.65,1.65,4.08,2.62,19.2,13.18,49,45.21,37.86,113.47Z"/>
      <path class="cls-7" d="M98.98,66.86c-.93.37-1.86.72-2.8,1.07h0c.94-.36,1.87-.72,2.81-1.07Z"/>
      <path class="cls-1" d="M163.45,68.3c-1.67-1.64-3.36-3.25-5.1-4.82-2.44-2.1-5-4.08-7.68-5.87-4.16-2.78-8.59-5.16-13.19-7.14-11.89-5.11-24.98-7.43-37.88-6.36-13.52,1.11-26.66,5.92-37.89,13.49-3.98,2.68-30.11,24.51-23.47,29.08,1.44.99,3.34.89,5.07.66,6.96-.91,13.73-3.29,19.74-6.93-.33,1.81,1.38,3.47,3.18,3.79,1.81.32,3.63-.34,5.34-1.01,4.03-1.59,7.98-3.37,11.85-5.31,5.08-2.55,10.03-5.38,14.78-8.51,1.5-.99,3.03-2.02,4.78-2.44,1.47-.35,3.01-.25,4.52-.31,4.49-.17,8.9-1.83,12.39-4.66,2.78,3.95,8.67,3.28,13.48,2.8,11.35-1.15,23.03,1.22,33.03,6.72-.94-1.1-1.94-2.14-2.94-3.18Z"/>
    </g>
  </g>
</svg>